<?xml version="1.0" encoding="UTF-8" standalone="no"?>
<svg
   xmlns:dc="http://purl.org/dc/elements/1.1/"
   xmlns:cc="http://creativecommons.org/ns#"
   xmlns:rdf="http://www.w3.org/1999/02/22-rdf-syntax-ns#"
   xmlns:svg="http://www.w3.org/2000/svg"
   xmlns="http://www.w3.org/2000/svg"
   xmlns:sodipodi="http://sodipodi.sourceforge.net/DTD/sodipodi-0.dtd"
   xmlns:inkscape="http://www.inkscape.org/namespaces/inkscape"
   version="1.1"
   x="0px"
   y="0px"
   viewBox="0 0 100 125"
   enable-background="new 0 0 100 100"
   xml:space="preserve"
   id="svg2"
   inkscape:version="0.48.5 r10040"
   width="100%"
   height="100%"
   sodipodi:docname="mic.svg"><metadata
     id="metadata14"><rdf:RDF><cc:Work
         rdf:about=""><dc:format>image/svg+xml</dc:format><dc:type
           rdf:resource="http://purl.org/dc/dcmitype/StillImage" /><dc:title></dc:title></cc:Work></rdf:RDF></metadata><defs
     id="defs12" /><sodipodi:namedview
     pagecolor="#ffffff"
     bordercolor="#666666"
     borderopacity="1"
     objecttolerance="10"
     gridtolerance="10"
     guidetolerance="10"
     inkscape:pageopacity="0"
     inkscape:pageshadow="2"
     inkscape:window-width="640"
     inkscape:window-height="480"
     id="namedview10"
     showgrid="false"
     inkscape:zoom="1.888"
     inkscape:cx="50"
     inkscape:cy="94.279661"
     inkscape:window-x="0"
     inkscape:window-y="0"
     inkscape:window-maximized="0"
     inkscape:current-layer="svg2" /><path
     d="M77.865,14.583L17.448,56.25c-4.167,2.083-4.167,2.083,0,6.25c2.083,4.167,2.083,4.167,4.167,2.083l62.5-43.75  c2.083-2.083,2.083-2.083,0-6.25C82.031,10.417,82.031,10.417,77.865,14.583z M50.781,0c-8.333,0-16.667,6.25-16.667,16.667v17.672  l32.675-22.534C64.664,4.337,57.722,0,50.781,0z M67.448,22.083L34.115,45.417V50c0,10.417,8.333,16.667,16.667,16.667  S67.448,60.417,67.448,50V22.083z M79.948,41.667c-4.167,0-4.167,0-4.167,4.167V50c0,14.583-10.417,25-25,25  c-8,0-14.75-3.167-18.75-8.333l-7.167,4.583c5,5.75,12.333,10,21.75,12.083v12.5c0,4.167,0,4.167,4.167,4.167s4.167,0,4.167-4.167  v-12.5C73.698,79.167,84.115,66.667,84.115,50v-4.167C84.115,41.667,84.115,41.667,79.948,41.667z"
     id="path4"
     style="fill:#ff0000" /></svg>